<?xml version="1.0" encoding="UTF-8" standalone="no" ?>
<!DOCTYPE svg PUBLIC "-//W3C//DTD SVG 1.1//EN" "http://www.w3.org/Graphics/SVG/1.1/DTD/svg11.dtd">
<svg xmlns="http://www.w3.org/2000/svg" xmlns:xlink="http://www.w3.org/1999/xlink" version="1.1" width="1280" height="1024" viewBox="0 0 1280 1024" xml:space="preserve">
<desc>Created with Fabric.js 5.3.0</desc>
<defs>
</defs>
<g transform="matrix(1 0 0 1 640 512)" id="background-logo"  >
<rect style="stroke: none; stroke-width: 0; stroke-dasharray: none; stroke-linecap: butt; stroke-dashoffset: 0; stroke-linejoin: miter; stroke-miterlimit: 4; fill: rgb(255,255,255); fill-opacity: 0; fill-rule: nonzero; opacity: 1;"  paint-order="stroke"  x="-640" y="-512" rx="0" ry="0" width="1280" height="1024" />
</g>
<g transform="matrix(1.9211538461538462 0 0 1.9211538461538462 759.6755630707057 321.8655410545306)" id="text-logo"  >
<g style=""  paint-order="stroke"   >
		<g transform="matrix(1 0 0 1 0 0)" id="text-logo-path-0"  >
<path style="stroke: rgb(168,15,36); stroke-width: 2.0860695291023745; stroke-dasharray: none; stroke-linecap: butt; stroke-dashoffset: 0; stroke-linejoin: miter; stroke-miterlimit: 4; fill: rgb(181,8,34); fill-rule: nonzero; opacity: 1;"  paint-order="stroke"  transform=" translate(-244.205, 26.945)" d="M 22.48 -53.9 L 1.69 -53.9 L 1.69 0 L 22.48 0 L 22.48 -19.63 L 26.33 -19.63 L 26.33 0 L 47.12 0 L 47.12 -53.9 L 26.33 -53.9 L 26.33 -34.27 L 22.48 -34.27 Z M 47.97 -40.42 L 47.97 -13.47 C 47.97 -5 53.36 0.39 61.83 0.39 L 79.54 0.39 C 88.01 0.39 93.4 -5 93.4 -13.47 L 93.4 -40.42 C 93.4 -48.89 88.01 -54.28 79.54 -54.28 L 61.83 -54.28 C 53.36 -54.28 47.97 -48.89 47.97 -40.42 Z M 72.61 -13.86 L 68.76 -13.86 L 68.76 -40.04 L 72.61 -40.04 Z M 141.22 -38.12 L 141.22 -53.9 L 94.25 -53.9 L 94.25 -38.12 L 107.34 -38.12 L 107.34 0 L 128.13 0 L 128.13 -38.12 Z M 155.93 -19.63 L 166.71 -19.63 L 166.71 -15.79 L 142.06 -15.79 L 142.06 0 L 173.64 0 C 182.11 0 187.5 -5.39 187.5 -13.86 L 187.5 -20.41 C 187.5 -28.88 182.11 -34.27 173.64 -34.27 L 162.86 -34.27 L 162.86 -38.12 L 185.96 -38.12 L 185.96 -53.9 L 155.93 -53.9 C 147.46 -53.9 142.06 -48.51 142.06 -40.04 L 142.06 -33.49 C 142.06 -25.02 147.46 -19.63 155.93 -19.63 Z M 219.91 -53.9 L 188.34 -53.9 L 188.34 0 L 209.13 0 L 209.13 -10.01 L 219.91 -10.01 C 228.38 -10.01 233.77 -15.4 233.77 -23.87 L 233.77 -40.04 C 233.77 -48.51 228.38 -53.9 219.91 -53.9 Z M 212.98 -24.25 L 209.13 -24.25 L 209.13 -39.66 L 212.98 -39.66 Z M 234.62 -40.42 L 234.62 -13.47 C 234.62 -5 240.01 0.39 248.48 0.39 L 266.19 0.39 C 274.66 0.39 280.05 -5 280.05 -13.47 L 280.05 -40.42 C 280.05 -48.89 274.66 -54.28 266.19 -54.28 L 248.48 -54.28 C 240.01 -54.28 234.62 -48.89 234.62 -40.42 Z M 259.26 -13.86 L 255.41 -13.86 L 255.41 -40.04 L 259.26 -40.04 Z M 327.87 -38.12 L 327.87 -53.9 L 280.9 -53.9 L 280.9 -38.12 L 293.99 -38.12 L 293.99 0 L 314.78 0 L 314.78 -38.12 Z M 328.71 -40.42 L 328.71 0 L 347.96 0 L 347.96 -38.12 L 351.81 -38.12 L 351.81 0 L 371.06 0 L 371.06 -38.12 L 374.91 -38.12 L 374.91 0 L 394.16 0 L 394.16 -40.42 C 394.16 -48.89 388.77 -54.28 380.3 -54.28 L 374.14 -54.28 C 368.37 -54.28 363.98 -51.74 361.82 -47.43 C 359.67 -51.74 355.28 -54.28 349.5 -54.28 L 342.57 -54.28 C 334.1 -54.28 328.71 -48.89 328.71 -40.42 Z M 395.01 -40.42 L 395.01 0 L 415.8 0 L 415.8 -11.94 L 419.65 -11.94 L 419.65 0 L 440.44 0 L 440.44 -40.42 C 440.44 -48.89 435.05 -54.28 426.58 -54.28 L 408.87 -54.28 C 400.4 -54.28 395.01 -48.89 395.01 -40.42 Z M 419.65 -26.57 L 415.8 -26.57 L 415.8 -40.04 L 419.65 -40.04 Z M 472.86 -53.9 L 441.29 -53.9 L 441.29 0 L 462.08 0 L 462.08 -10.01 L 472.86 -10.01 C 481.33 -10.01 486.72 -15.4 486.72 -23.87 L 486.72 -40.04 C 486.72 -48.51 481.33 -53.9 472.86 -53.9 Z M 465.93 -24.25 L 462.08 -24.25 L 462.08 -39.66 L 465.93 -39.66 Z" stroke-linecap="round" />
</g>
</g>
</g>
<g transform="matrix(1 0 0 1 325 387.8237926749959)" id="tagline-84a6bfa5-accb-4d35-94da-64da5f1e99df-logo"  >
<g style=""  paint-order="stroke"   >
		<g transform="matrix(1 0 0 1 0 0)" id="tagline-84a6bfa5-accb-4d35-94da-64da5f1e99df-logo-path-0"  >
<linearGradient id="SVGID_100344" gradientUnits="userSpaceOnUse" gradientTransform="matrix(1 0 0 1 0 0)"  x1="-1" y1="-26.374199999999973" x2="-1" y2="7.625800000000027">
<stop offset="0%" style="stop-color:rgb(245,81,95);stop-opacity: 1"/>
<stop offset="100%" style="stop-color:rgb(159,4,27);stop-opacity: 1"/>
</linearGradient>
<path style="stroke: none; stroke-width: 0; stroke-dasharray: none; stroke-linecap: butt; stroke-dashoffset: 0; stroke-linejoin: miter; stroke-miterlimit: 4; fill: url(#SVGID_100344); fill-rule: nonzero; opacity: 1;"  paint-order="stroke"  transform=" translate(0, 0)" d="" stroke-linecap="round" />
</g>
</g>
</g>
<g transform="matrix(1.6090200903361374 0 0 1.6090200903361374 178.95137887699428 254.6558135114654)" id="logo-logo"  >
<g style=""  paint-order="stroke"   >
		<g transform="matrix(0.37903569043700486 0 0 0.37903569043700486 0 -0.00000594958692090586)"  >
<radialGradient id="SVGID_27_100343" gradientUnits="userSpaceOnUse" gradientTransform="matrix(1 0 0 1 0 0)"  cx="529.0246321" cy="436.6441969" r="212.781383" fx="529.0246321" fy="436.6441969">
<stop offset="0%" style="stop-color:rgb(252,238,33);stop-opacity: 1"/>
<stop offset="50.26596%" style="stop-color:rgb(243,67,71);stop-opacity: 1"/>
<stop offset="100%" style="stop-color:rgb(132,39,101);stop-opacity: 1"/>
</radialGradient>
<path style="stroke: none; stroke-width: 0; stroke-dasharray: none; stroke-linecap: butt; stroke-dashoffset: 0; stroke-linejoin: miter; stroke-miterlimit: 4; fill: url(#SVGID_27_100343); fill-rule: nonzero; opacity: 1;"  paint-order="stroke"  transform=" translate(-478.9910645173726, -351.40024238500155)" d="M 491.7168611 128.5447811 C 480.5561893 147.8103649 446.14194050000003 219.63006719999998 511.60771070000004 280.5263962 C 512.5975846 281.44717790000004 514.1829887 280.4932595 513.8241661000001 279.1898272 C 509.81620110000006 264.63079280000005 501.2635245000001 219.28153700000001 541.1535785000001 194.44438920000005 C 542.2859099000001 193.73935430000006 543.6558136000001 194.90675280000005 543.1081481000001 196.12302220000004 C 538.5045195000001 206.34687720000005 530.8681364000001 234.23772130000003 567.1422792000001 261.23243220000006 C 607.5014117000001 291.2671354000001 619.5725556000001 334.61383320000004 621.3019952000001 351.2006858000001 C 621.4431633 352.5546129000001 623.2742217000001 352.8542751000001 623.8543702000001 351.6228228000001 C 626.650657 345.68728520000013 631.1035608000001 334.3645430000001 632.4672741 320.1569310000001 C 632.5957172000001 318.8187689000001 634.3994784 318.4926461000001 635.0044031000001 319.6931633000001 C 643.3113324000001 336.1788704000001 669.9594217000001 399.9814414000001 626.0188472000001 469.0107019000001 C 625.0984454000001 470.4566242000001 627.1756508000001 471.90650510000006 628.2198882000001 470.5473145000001 C 639.0423085000001 456.4607364000001 650.9343432000002 437.4190864000001 657.2206021000002 415.7663949000001 C 657.6801346000002 414.18355900000006 660.0393509000002 414.6575834000001 659.8417513000002 416.29388840000007 C 656.1124546000002 447.17586860000006 640.9672204000002 508.40379350000006 580.2011027000002 547.4677264000001 C 509.6864071000002 592.7986021 446.13574840000024 572.9659904 427.54835370000023 565.4298545 C 426.21296590000026 564.8884304000001 426.55215320000025 562.9082539 427.99170390000023 562.8442664 C 450.7740978000002 561.8315966 532.6255954000003 554.1588325 552.3187498000002 496.29125580000004 C 574.0936870000002 432.30644020000005 516.8003329000002 407.1138427000001 491.4022176000002 399.88893850000005 C 490.1913990000002 399.54450160000005 489.2087757000002 400.90546470000004 489.9247375000002 401.94089570000006 C 497.3508612000002 412.68062870000006 517.6237725000002 450.2062192000001 473.25992630000025 490.99713820000005 C 435.43778620000023 525.7731999 392.3212633000002 523.6711477 371.09009040000024 519.7488974 C 369.47352030000025 519.450252 369.71401480000026 517.0644417000001 371.35780970000025 517.0850925000001 C 375.16463420000025 517.1329171000001 379.38944660000027 517.0583965000001 383.49278340000023 516.7266647000001 C 384.91518360000026 516.6116716000001 385.2144962000002 514.6540851000001 383.88533990000025 514.1346726000002 C 363.43643830000025 506.14357650000017 291.95894750000025 471.68786950000015 298.55715600000025 382.4589702000002 C 298.65193190000025 381.1772973000002 300.32370280000026 380.7358384000002 301.0265983000003 381.8117593000002 C 306.40068080000026 390.0378577000002 321.7617497000003 411.2089743000002 344.44649280000027 423.2352841000002 C 345.5736883000003 423.83286640000017 346.82155170000027 422.64690470000016 346.29266280000024 421.4858919000002 C 337.48975070000023 402.16181070000016 299.3475800000002 306.9010638000002 364.2714244000002 231.55829190000017 C 365.1489238000002 230.53997210000017 366.82195330000025 231.29354140000018 366.6283185000002 232.62376170000016 C 362.9226046000002 258.08104150000014 351.0370620000002 382.8435764000002 465.5934573000002 425.8738010000002 C 467.01737240000017 426.4086588000002 468.1024874000002 424.5393310000002 466.92787080000016 423.57295480000016 C 447.48066390000014 407.5734198000002 392.00505960000015 354.3732337000001 399.61286750000016 273.35007940000014 C 407.65025730000013 187.75187840000012 471.36950360000014 139.13192120000014 489.80761820000015 126.75753000000014 C 490.98908590000013 125.96461040000014 492.43010650000014 127.31357510000015 491.71686120000015 128.54478130000015 Z" stroke-linecap="round" />
</g>
		<g transform="matrix(0.37903569043700486 0 0 0.37903569043700486 24.36825800768463 -2.842171e-14)"  >
<path style="stroke: none; stroke-width: 0; stroke-dasharray: none; stroke-linecap: butt; stroke-dashoffset: 0; stroke-linejoin: miter; stroke-miterlimit: 4; fill: rgb(140,12,30); fill-rule: nonzero; opacity: 1;"  paint-order="stroke"  transform=" translate(-543.2812055845359, -351.4002580816418)" d="M 657.2205909 415.7663534 C 650.9342139 437.4191854 639.0423682 456.4606893 628.2198585000001 470.54735930000004 C 627.1756690000001 471.90649020000006 625.0985206000001 470.456539 626.0189308000001 469.01073820000005 C 669.9593605000001 399.98144130000003 643.3114113000001 336.17895110000006 635.0045265000001 319.6931112000001 C 634.3995460000001 318.4926717000001 632.5958351000002 318.8188436000001 632.4674171000001 320.15697840000007 C 631.1036476000002 334.36449790000006 626.6505226000002 345.68725180000007 623.8543800000001 351.6227987000001 C 623.2743019000001 352.8542440000001 621.4432472000001 352.55468350000007 621.3018898000001 351.2006796000001 C 619.5726418000002 334.6137655000001 607.5013527000001 291.26708580000013 567.1422218000001 261.2324179000001 C 530.8680519000002 234.23778900000008 538.5045265000001 206.3469199000001 543.1080421000001 196.1230429000001 C 543.6558937000001 194.9067343000001 542.2857765000001 193.73925380000009 541.1534523000001 194.4443320000001 C 501.26355970000014 219.2814902000001 509.81605000000013 264.6308554000001 513.8241066000002 279.1896933000001 C 514.1829933000001 280.4931601000001 512.5975441000002 281.44701750000013 511.6077980000002 280.5263632000001 C 446.14197770000015 219.6301230000001 480.5562843000002 147.81029870000012 491.7169289000002 128.54467370000012 C 492.4300637000002 127.31347250000012 490.9891457000002 125.96459560000012 489.8077492000002 126.75756430000011 C 486.8243508000002 128.7597616000001 482.6505226000002 131.71703700000012 477.7237648000002 135.6203573000001 C 449.5067238000002 166.3244589000001 372.1324562000002 271.3566854000001 491.6129250000002 398.52660730000014 C 492.2308449000002 399.18432210000014 492.8228859000002 399.8325155000001 493.4254250000002 400.48461510000016 C 519.6964211000002 408.43676350000015 573.5343117000002 433.94994710000014 552.3187355000002 496.29125570000014 C 532.6256203000003 554.1589315000001 450.77405780000026 561.8315389000002 427.9918312000002 562.8442342000001 C 426.55213390000023 562.9081990000001 426.2130226000002 564.8884237000001 427.5484718000002 565.4299276 C 446.1358741000002 572.9660604000001 509.6864113000002 592.7985799 580.2010597000002 547.4677694000001 C 640.9671730000002 508.40380460000006 656.1124367000002 447.1757772000001 659.8416847000002 416.29394130000003 C 660.0394386000002 414.65746670000004 657.6800636000002 414.1835897 657.2205909000002 415.7663534 Z" stroke-linecap="round" />
</g>
		<g transform="matrix(0.37903569043700486 0 0 0.37903569043700486 12.359268345238775 49.38359673811391)"  >
<path style="stroke: none; stroke-width: 0; stroke-dasharray: none; stroke-linecap: butt; stroke-dashoffset: 0; stroke-linejoin: miter; stroke-miterlimit: 4; fill: rgb(196,36,51); fill-rule: nonzero; opacity: 1;"  paint-order="stroke"  transform=" translate(-511.598200618433, -481.6877164504769)" d="M 514.7504686 416.6196165 C 514.4085801 416.2274356 514.9334609 415.6830849 515.3379631 416.0103027 C 526.5494531 425.079721 556.9822373000001 453.7453866 545.6716909 489.99713810000003 C 534.7813899 524.9019488 492.70360210000007 541.8748752 475.6047735000001 547.4414793000001 C 475.1012817000001 547.6053934000001 474.8125348000001 546.8848632 475.28923700000007 546.6543707000001 C 486.8959177000001 541.0423710000001 510.6837819000001 526.3908457000001 528.6716909 494.52654980000005 C 548.1413866 460.03737450000006 524.0543855000001 427.29215610000006 514.7504686000001 416.61961640000004 Z" stroke-linecap="round" />
</g>
		<g transform="matrix(0.37903569043700486 0 0 0.37903569043700486 -42.18544631880951 34.527155558468735)"  >
<path style="stroke: none; stroke-width: 0; stroke-dasharray: none; stroke-linecap: butt; stroke-dashoffset: 0; stroke-linejoin: miter; stroke-miterlimit: 4; fill: rgb(168,15,36); fill-rule: nonzero; opacity: 1;"  paint-order="stroke"  transform=" translate(-367.6942991120562, -442.4923542340149)" d="M 300.3695167 381.2851522 C 299.5963233 381.0058553 298.6285499 381.49242760000004 298.5572608 382.4589803 C 293.6490577 448.8312948 331.9376319 484.8915975 360.2931006 502.3024862 C 403.0575049 509.0830038 437.2598975 490.29125569999997 437.2598975 490.29125569999997 C 340.4456885 488.1345174 308.36902840000005 407.93627519999995 300.3695166 381.28515219999997 Z" stroke-linecap="round" />
</g>
		<g transform="matrix(0.37903569043700486 0 0 0.37903569043700486 -20.186257211735438 0.6371137927475559)"  >
<path style="stroke: none; stroke-width: 0; stroke-dasharray: none; stroke-linecap: butt; stroke-dashoffset: 0; stroke-linejoin: miter; stroke-miterlimit: 4; fill: rgb(196,36,51); fill-rule: nonzero; opacity: 1;"  paint-order="stroke"  transform=" translate(-425.7341873392317, -353.0811388240675)" d="M 487.6129249 475.0764119 C 499.1720069 459.1352498 501.883921 444.2311971 500.8211769 431.9062459 C 492.6119484 431.43261309999997 480.5052589 429.8386189 467.309214 425.09423419999996 C 467.0587257 425.7170369 466.3868507 426.1718709 465.5933937 425.87377519999995 C 351.0369972 382.84350179999996 362.9224953 258.0810505999999 366.62830579999996 232.62377519999995 C 366.82190929999996 231.29345289999995 365.1490578 230.54003499999996 364.2713722 231.55834549999994 C 364.2713722 231.55834549999994 289.4952492 423.50878499999993 487.61292489999994 475.0764118999999 Z" stroke-linecap="round" />
</g>
		<g transform="matrix(0.37903569043700486 0 0 0.37903569043700486 -18.385514539623728 -3.6160591545355203)"  >
<path style="stroke: none; stroke-width: 0; stroke-dasharray: none; stroke-linecap: butt; stroke-dashoffset: 0; stroke-linejoin: miter; stroke-miterlimit: 4; fill: rgb(168,15,36); fill-rule: nonzero; opacity: 1;"  paint-order="stroke"  transform=" translate(-430.48503987777644, -341.8601033)" d="M 500.8211768 431.9062459 C 492.6119483 431.43261309999997 480.5052588 429.8386189 467.3092139 425.09423419999996 C 467.0587256 425.7170369 466.3868506 426.1718709 465.59339359999996 425.87377519999995 C 352.78626469999995 383.50048419999996 362.58899909999997 261.8735310999999 366.45325689999993 233.86034749999996 C 365.03455569999994 232.36352129999997 364.27137209999995 231.55834549999997 364.27137209999995 231.55834549999997 C 364.27137209999995 231.55834549999997 340.90687009999994 358.644283 402.67176269999993 409.82055249999996 C 446.80237789999995 446.38598219999994 482.2789403999999 451.9592244 498.94227049999995 452.16186109999995 C 500.93860839999996 444.89281809999994 501.35315919999994 438.0761676999999 500.82117669999997 431.90624589999993 Z" stroke-linecap="round" />
</g>
		<g transform="matrix(0.37903569043700486 0 0 0.37903569043700486 24.36825800768463 -2.842171e-14)"  >
<path style="stroke: none; stroke-width: 0; stroke-dasharray: none; stroke-linecap: butt; stroke-dashoffset: 0; stroke-linejoin: miter; stroke-miterlimit: 4; fill: rgb(168,15,36); fill-rule: nonzero; opacity: 1;"  paint-order="stroke"  transform=" translate(-543.2812055845359, -351.4002580816418)" d="M 657.2205909 415.7663534 C 650.9342139 437.4191854 639.0423682 456.4606893 628.2198585000001 470.54735930000004 C 627.1756690000001 471.90649020000006 625.0985206000001 470.456539 626.0189308000001 469.01073820000005 C 669.9593605000001 399.98144130000003 643.3114113000001 336.17895110000006 635.0045265000001 319.6931112000001 C 634.3995460000001 318.4926717000001 632.5958351000002 318.8188436000001 632.4674171000001 320.15697840000007 C 631.1036476000002 334.36449790000006 626.6505226000002 345.68725180000007 623.8543800000001 351.6227987000001 C 623.2743019000001 352.8542440000001 621.4432472000001 352.55468350000007 621.3018898000001 351.2006796000001 C 619.5726418000002 334.6137655000001 607.5013527000001 291.26708580000013 567.1422218000001 261.2324179000001 C 530.8680519000002 234.23778900000008 538.5045265000001 206.3469199000001 543.1080421000001 196.1230429000001 C 543.6558937000001 194.9067343000001 542.2857765000001 193.73925380000009 541.1534523000001 194.4443320000001 C 501.26355970000014 219.2814902000001 509.81605000000013 264.6308554000001 513.8241066000002 279.1896933000001 C 514.1829933000001 280.4931601000001 512.5975441000002 281.44701750000013 511.6077980000002 280.5263632000001 C 446.14197770000015 219.6301230000001 480.5562843000002 147.81029870000012 491.7169289000002 128.54467370000012 C 492.4300637000002 127.31347250000012 490.9891457000002 125.96459560000012 489.8077492000002 126.75756430000011 C 488.3324074000002 127.7475545000001 486.56434100000024 128.9724081000001 484.5611672000002 130.42699790000012 C 469.91370630000023 148.87133380000012 446.3289895000002 189.67943930000013 456.31873560000025 253.11474200000012 C 470.4364114000002 342.7619588000001 594.8621926000003 415.5153768000001 554.5316262000002 488.9033162000001 C 554.5250344000002 488.9155232000001 554.5177102000002 488.9274861000001 554.5108742000002 488.93969320000014 C 553.8931984000002 491.33349200000015 553.1737160000002 493.77904870000015 552.3187355000002 496.29125570000014 C 532.6256203000003 554.1589315000001 450.77405780000026 561.8315389000002 427.9918312000002 562.8442342000001 C 426.55213390000023 562.9081990000001 426.2130226000002 564.8884237000001 427.5484718000002 565.4299276 C 446.1358741000002 572.9660604000001 509.6864113000002 592.7985799 580.2010597000002 547.4677694000001 C 640.9671730000002 508.40380460000006 656.1124367000002 447.1757772000001 659.8416847000002 416.29394130000003 C 660.0394386000002 414.65746670000004 657.6800636000002 414.1835897 657.2205909000002 415.7663534 Z" stroke-linecap="round" />
</g>
		<g transform="matrix(0.37903569043700486 0 0 0.37903569043700486 24.454898452294913 12.83559166486404)"  >
<path style="stroke: none; stroke-width: 0; stroke-dasharray: none; stroke-linecap: butt; stroke-dashoffset: 0; stroke-linejoin: miter; stroke-miterlimit: 4; fill: rgb(168,15,36); fill-rule: nonzero; opacity: 1;"  paint-order="stroke"  transform=" translate(-543.5097868152648, -385.2640656034755)" d="M 659.8416846 416.2939412 C 660.0394385 414.6574666 657.6800635 414.1835896 657.2205908 415.7663533 C 650.9342138 437.4191853 639.0423681 456.4606892 628.2198584 470.54735919999996 C 627.1756689 471.9064901 625.0985205000001 470.45653889999994 626.0189307 469.01073809999997 C 669.9593604 399.98144119999995 643.3114112000001 336.178951 635.0045264 319.6931111 C 634.3995459 318.4926716 632.5958350000001 318.8188435 632.4674170000001 320.1569783 C 631.1036475000001 334.3644978 626.6505225000001 345.6872517 623.8543799 351.6227986 C 623.2743018 352.85424390000003 621.4432471 352.5546834 621.3018897000001 351.20067950000004 C 619.5726417000001 334.61376540000003 607.5013526 291.26708570000005 567.1422217 261.2324178 C 530.8680518000001 234.2377889 538.5045264 206.34691980000002 543.1080420000001 196.1230428 C 543.6097510000001 195.00902910000002 542.5037940000001 193.95409750000002 541.4439795000001 194.322994 C 535.1024268000001 206.418453 515.7076514 249.1518514 538.5020850000001 282.1437948 C 565.3258155000001 320.96728110000004 637.0245459 406.99706630000003 608.0833838000001 471.2324178 C 580.9207861000001 531.5205037000001 514.5838721000001 576.2607381 427.1661475000001 565.1916463 C 427.2750342000001 565.2844197000001 427.3978370000001 565.3688924 427.5484717000001 565.4299275 C 446.1358740000001 572.9660603 509.6864112000001 592.7985798 580.2010596000001 547.4677693 C 640.9671729000002 508.4038045 656.1124366000001 447.1757771 659.8416846000001 416.29394119999995 Z" stroke-linecap="round" />
</g>
		<g transform="matrix(0.37903569043700486 0 0 0.37903569043700486 16.75176520805786 11.242404742484496)"  >
<path style="stroke: none; stroke-width: 0; stroke-dasharray: none; stroke-linecap: butt; stroke-dashoffset: 0; stroke-linejoin: miter; stroke-miterlimit: 4; fill: rgb(168,15,36); fill-rule: nonzero; opacity: 1;"  paint-order="stroke"  transform=" translate(-523.1868108038084, -381.0608019990833)" d="M 543.1080421 196.1230428 C 543.5743513 195.1544007 542.4452772000001 194.0112844 541.4900585 194.4554082 C 539.5167165 199.0133879 537.1740707 204.4224137 535.5798427000001 209.4819013 C 527.0285495 235.0497217 526.0048214000001 263.29634120000003 544.0905452000001 284.9029359 C 577.8626289000001 330.1295048 628.8316364000001 395.6638951 617.626611 455.40378599999997 C 615.5455508 466.57949679999996 610.5932524 477.01460949999995 604.9527476000001 486.79369299999996 C 601.5829168 492.71445839999996 597.4482217000001 498.7258831 593.2870166 504.12673479999995 C 568.8613745 536.1532997999999 531.984606 558.011857 492.4495031 565.0855147 C 471.4146424 569.1559755999999 445.8419861 568.7437209 427.1687286 565.1713625 C 487.312097 570.7489578999999 548.4805836 549.5995533 585.5241012 500.738006 C 589.8075256 495.0168668 593.9938265000001 488.7539216 597.4617517 482.50922479999997 C 602.5601229 473.508831 607.1160044000001 463.9723577 608.9478732 453.72436749999997 C 614.1489146 424.939465 603.6896062 396.07257089999996 591.0686487 370.43187679999994 C 576.7740472 341.49979449999995 557.5670739000001 315.0075734999999 539.2120466 288.3603525 C 536.9286649000001 284.9759949 534.4887622 281.40953559999997 532.6100378 277.668169 C 519.1230646 251.01690989999997 527.3259881 218.947701 541.3198396 194.25807859999998 C 541.3199562 194.25805269999998 541.3499855 194.2058066 541.3499855 194.2058066 L 541.3980812 194.1906699 C 542.5290481 193.8270504 543.6879507 195.06345449999998 543.1080421 196.1230429 L 543.1080421 196.1230429 Z" stroke-linecap="round" />
</g>
</g>
</g>
</svg>